<?xml version="1.0" encoding="UTF-8" standalone="no"?>
<svg
   width="995.61218"
   height="995.61218"
   viewBox="0 0 995.61222 995.61222"
   version="1.1"
   id="svg6"
   sodipodi:docname="logo-hero.svg"
   inkscape:version="1.1.2 (0a00cf5339, 2022-02-04)"
   xmlns:inkscape="http://www.inkscape.org/namespaces/inkscape"
   xmlns:sodipodi="http://sodipodi.sourceforge.net/DTD/sodipodi-0.dtd"
   xmlns="http://www.w3.org/2000/svg"
   xmlns:svg="http://www.w3.org/2000/svg">
  <defs
     id="defs10">
    <filter
       style="color-interpolation-filters:sRGB;"
       inkscape:label="Drop Shadow"
       id="filter9000"
       x="-0.056082997"
       y="-0.05874597"
       width="1.112166"
       height="1.1174919">
      <feFlood
         flood-opacity="0.4"
         flood-color="rgb(0,0,0)"
         result="flood"
         id="feFlood8990" />
      <feComposite
         in="flood"
         in2="SourceGraphic"
         operator="in"
         result="composite1"
         id="feComposite8992" />
      <feGaussianBlur
         in="composite1"
         stdDeviation="0.8"
         result="blur"
         id="feGaussianBlur8994" />
      <feOffset
         dx="0"
         dy="0"
         result="offset"
         id="feOffset8996" />
      <feComposite
         in="SourceGraphic"
         in2="offset"
         operator="over"
         result="composite2"
         id="feComposite8998" />
    </filter>
  </defs>
  <sodipodi:namedview
     id="namedview8"
     pagecolor="#ffffff"
     bordercolor="#666666"
     borderopacity="1.0"
     inkscape:pageshadow="2"
     inkscape:pageopacity="0.0"
     inkscape:pagecheckerboard="0"
     showgrid="false"
     fit-margin-top="0"
     fit-margin-left="0"
     fit-margin-right="0"
     fit-margin-bottom="0"
     inkscape:zoom="0.55593936"
     inkscape:cx="801.34639"
     inkscape:cy="707.81101"
     inkscape:window-width="1920"
     inkscape:window-height="1016"
     inkscape:window-x="0"
     inkscape:window-y="27"
     inkscape:window-maximized="1"
     inkscape:current-layer="svg6" />
  <g
     id="g829"
     transform="matrix(17.525936,0,0,17.525936,188.06946,174.47037)"
     style="filter:url(#filter9000)">
    <path
       fill="#c42a2a"
       d="M 29.879,33.879 C 31.045,35.045 32.9,35.1 34,34 35.1,32.9 35.045,31.045 33.879,29.879 L 12.121,8.121 C 10.955,6.955 9.1,6.9 8,8 6.9,9.1 6.955,10.955 8.121,12.121 Z"
       id="path2" />
    <path
       fill="#66757f"
       d="M 22,3 C 22,3 16,0 11,5 l -7,7 c 0,0 -1,-1 -2,0 l -1,1 c 0,0 -1,1 0,2 l 4,4 c 0,0 1,1 2,0 l 1,-1 c 0,0 1,-1 0,-2 L 7.922,15.922 C 8.692,15.179 9.845,14.422 11,15 l 4,-4 c 0,0 -1,-3 1,-5 2,-2 3,-2 5,-2 2,0 1,-1 1,-1"
       id="path4" />
  </g>
  <rect
     style="opacity:0.126061;fill:#000000;fill-opacity:0"
     id="rect5884"
     width="523.1106"
     height="420.26065"
     x="-550.19788"
     y="-426.76334" />
</svg>
